<?xml version="1.0" encoding="UTF-8"?>
<svg id="Layer_2" data-name="Layer 2" xmlns="http://www.w3.org/2000/svg" viewBox="0 0 221.53 153.19">
  <defs>
    <style>
      .cls-1 {
        fill: #e72f6e;
      }

      .cls-2 {
        fill: #ddc74d;
      }
    </style>
  </defs>
  <g id="Livello_1" data-name="Livello 1">
    <path class="cls-1" d="M70.73,125L0,90.12v-17.27l70.73-34.88v15.32l-49.71,24.12c-2.06.98-4.02,1.79-5.87,2.44-1.85.65-3.26,1.09-4.24,1.3.98.33,2.44.81,4.4,1.47,1.96.65,3.85,1.47,5.7,2.44l49.71,24.12v15.81Z"/>
    <path class="cls-2" d="M76.16,153.19L133.85,0h16.95l-57.69,153.19h-16.95Z"/>
    <path class="cls-1" d="M150.8,125v-15.32l49.71-23.96c2.06-.98,4.02-1.82,5.87-2.53,1.85-.71,3.26-1.17,4.24-1.39-.98-.22-2.44-.68-4.4-1.39-1.96-.71-3.86-1.55-5.7-2.53l-49.71-24.12v-15.81l70.73,34.88v17.27l-70.73,34.88Z"/>
  </g>
</svg>