<?xml version="1.0" encoding="UTF-8"?>
<svg id="Layer_2" data-name="Layer 2" xmlns="http://www.w3.org/2000/svg" viewBox="0 0 117.9 152.85">
  <defs>
    <style>
      .cls-1 {
        fill: #e5e7eb;
      }
    </style>
  </defs>
  <g id="Livello_1" data-name="Livello 1">
    <g>
      <path class="cls-1" d="M103.16,138.54c-.15.52-.34,1.11-.57,1.77-.23.67-.53,1.31-.91,1.94-.38.63-.86,1.14-1.43,1.55-.57.41-1.24.61-2,.61h-57.81V0H0v5.21l14.51,2.89c1.52.37,2.8,1.15,3.83,2.33,1.03,1.19,1.54,2.63,1.54,4.33v123.35c0,1.63-.52,3.03-1.54,4.21-1.03,1.19-2.31,1.96-3.83,2.33l-14.51,2.99v5.21h117.9v-43.59h-6.05l-8.68,29.28Z"/>
      <path class="cls-1" d="M100.89,9.43c-5.24-3.25-11.36-5.64-18.33-7.15-4.83-1.05-9.89-1.71-15.15-2.03v8.36c11.7,2.78,23.75,9.42,26.62,24.78.03.16.04.3.07.45.81,3.77,1.24,7.69,1.24,11.76,0,1.55-.16,3.5-.46,5.82-.31,2.33-.91,4.79-1.79,7.38-.89,2.59-2.08,5.16-3.59,7.71-1.5,2.55-3.47,4.86-5.9,6.93-2.43,2.08-5.34,3.76-8.73,5.05-2.21.84-4.72,1.38-7.46,1.68v9.54c6.66-.2,12.89-1.33,18.67-3.4,6.4-2.29,11.95-5.56,16.66-9.82,4.7-4.25,8.41-9.43,11.1-15.53,2.57-5.82,3.92-12.34,4.04-19.54,0-.27,0-.55,0-.82v-.24c0-7.16-1.53-13.29-4.57-18.39-3.05-5.1-7.19-9.28-12.44-12.53Z"/>
    </g>
  </g>
</svg>