<?xml version="1.0" encoding="UTF-8"?>
<svg id="Layer_2" data-name="Layer 2" xmlns="http://www.w3.org/2000/svg" viewBox="0 0 500 500">
  <defs>
    <style>
      .cls-1 {
        fill: #fff;
      }
    </style>
  </defs>
  <g id="Livello_1" data-name="Livello 1">
    <rect width="500" height="500"/>
    <g>
      <path class="cls-1" d="M307.94,271.78c-.2.68-.45,1.45-.75,2.33-.3.87-.7,1.72-1.2,2.55-.5.82-1.12,1.5-1.87,2.03-.75.54-1.63.8-2.62.8h-75.75V90.23h-53v6.83l19.01,3.78c1.99.49,3.67,1.5,5.02,3.05,1.35,1.55,2.02,3.44,2.02,5.67v161.64c0,2.13-.68,3.97-2.02,5.52-1.35,1.55-3.02,2.57-5.02,3.06l-19.01,3.92v6.83h154.5v-57.13h-7.93l-11.38,38.38Z"/>
      <path class="cls-1" d="M304.97,102.58c-6.87-4.26-14.88-7.39-24.03-9.38-6.33-1.37-12.96-2.24-19.85-2.66v10.95c15.33,3.64,31.12,12.34,34.89,32.48.03.21.06.39.09.59,1.06,4.94,1.62,10.07,1.62,15.41,0,2.03-.21,4.58-.61,7.63-.41,3.06-1.19,6.28-2.35,9.67-1.16,3.4-2.73,6.76-4.7,10.1-1.97,3.34-4.55,6.37-7.73,9.08-3.18,2.72-7,4.93-11.44,6.62-2.9,1.1-6.18,1.81-9.77,2.2v12.5c8.73-.26,16.89-1.74,24.47-4.45,8.39-3.01,15.66-7.29,21.83-12.87,6.16-5.57,11.02-12.36,14.55-20.35,3.37-7.63,5.14-16.17,5.3-25.61,0-.36,0-.72,0-1.08v-.31c0-9.39-2-17.42-5.99-24.1-3.99-6.69-9.42-12.16-16.3-16.43Z"/>
      <g>
        <path class="cls-1" d="M123.39,371.19l-.73,10.33h-27.16v-1.74c.39-.03.96-.09,1.7-.17s1.26-.19,1.55-.32c.49-.21.84-.52,1.07-.93s.33-.93.33-1.57v-24.88c0-.56-.09-1.04-.28-1.47s-.56-.77-1.11-1.03c-.38-.2-.9-.39-1.58-.58-.68-.19-1.24-.3-1.68-.33v-1.74h14.67v1.74c-.46.02-1.05.1-1.78.24s-1.25.28-1.58.39c-.56.2-.93.53-1.14,1s-.31.98-.31,1.52v23.34c0,1.08.05,1.91.16,2.51s.36,1.06.75,1.38c.38.29.93.49,1.68.58s1.78.13,3.12.13c.6,0,1.23-.02,1.89-.05s1.27-.1,1.86-.2c.57-.1,1.1-.23,1.58-.4s.84-.39,1.07-.65c.67-.75,1.45-1.89,2.34-3.42.89-1.53,1.51-2.76,1.85-3.71h1.74Z"/>
        <path class="cls-1" d="M151.01,381.08l-7.88.54-.37-.34v-3.06h-.15c-.39.41-.83.84-1.32,1.31-.49.47-1.05.89-1.69,1.26-.73.44-1.44.78-2.13,1-.68.23-1.65.34-2.91.34-2.14,0-3.76-.7-4.88-2.09-1.12-1.4-1.67-3.42-1.67-6.08v-11.55c0-.59-.11-1.08-.33-1.48-.22-.4-.55-.75-.97-1.04-.3-.2-.67-.34-1.11-.43-.44-.09-.91-.15-1.4-.18v-1.62l8.06-.59.37.34v16.77c0,1.75.39,3.06,1.18,3.94.78.88,1.72,1.32,2.82,1.32.9,0,1.7-.14,2.4-.42.7-.28,1.29-.6,1.76-.98.44-.34.83-.7,1.16-1.09.33-.38.59-.74.77-1.07v-13.67c0-.54-.11-1.02-.34-1.43-.23-.42-.55-.77-.95-1.07-.29-.2-.73-.31-1.31-.36-.58-.04-1.23-.08-1.95-.11v-1.62l8.79-.59.37.34v19.15c0,.56.11,1.03.34,1.42.23.39.55.73.95,1,.29.18.64.3,1.05.36.41.06.86.09,1.35.11v1.62Z"/>
        <path class="cls-1" d="M165.14,382.16c-3.49,0-6.23-1.16-8.2-3.48-1.98-2.32-2.96-5.43-2.96-9.33,0-1.7.27-3.29.8-4.76.53-1.48,1.3-2.82,2.31-4.03.96-1.16,2.17-2.09,3.62-2.8,1.45-.71,3.04-1.07,4.75-1.07,2.37,0,4.29.57,5.78,1.7,1.49,1.13,2.23,2.68,2.23,4.64,0,.82-.2,1.54-.59,2.17s-1.04.94-1.93.94c-.96,0-1.71-.24-2.24-.73-.53-.49-.8-1.04-.8-1.64,0-.73.1-1.49.29-2.26.2-.78.31-1.34.34-1.7-.29-.51-.73-.84-1.31-1.01-.58-.17-1.2-.26-1.87-.26-.78,0-1.53.17-2.23.5-.71.33-1.4.95-2.07,1.85-.6.82-1.09,1.92-1.47,3.31-.37,1.39-.56,3.04-.56,4.97,0,3.04.67,5.51,2.02,7.43s3.11,2.88,5.29,2.88c1.58,0,2.91-.38,3.97-1.16,1.07-.77,2.06-1.93,2.97-3.47l1.57,1.03c-1.08,1.93-2.5,3.45-4.26,4.58-1.76,1.13-3.58,1.69-5.46,1.69Z"/>
        <path class="cls-1" d="M199.62,381.08c-.77.28-1.44.5-2.02.67s-1.24.26-1.97.26c-1.27,0-2.29-.3-3.05-.89-.76-.6-1.24-1.47-1.46-2.61h-.15c-1.06,1.18-2.2,2.07-3.42,2.69-1.22.62-2.68.93-4.4.93-1.81,0-3.3-.56-4.47-1.67s-1.75-2.56-1.75-4.36c0-.93.13-1.76.39-2.5s.65-1.4,1.18-1.98c.41-.49.95-.93,1.62-1.31.67-.38,1.3-.69,1.89-.92.73-.28,2.22-.79,4.47-1.54,2.24-.75,3.76-1.34,4.54-1.76v-2.42c0-.21-.04-.62-.13-1.22-.09-.6-.28-1.18-.58-1.71-.33-.6-.79-1.13-1.38-1.58s-1.44-.67-2.53-.67c-.75,0-1.45.13-2.09.38-.64.25-1.1.52-1.36.8,0,.33.08.81.23,1.44.16.64.23,1.22.23,1.76,0,.57-.26,1.09-.77,1.57s-1.23.71-2.14.71c-.82,0-1.42-.29-1.8-.87s-.58-1.23-.58-1.95.27-1.47.8-2.15c.53-.69,1.22-1.3,2.07-1.84.73-.46,1.62-.84,2.67-1.16,1.04-.32,2.07-.48,3.06-.48,1.37,0,2.57.09,3.59.28,1.02.19,1.95.59,2.78,1.21.83.6,1.47,1.42,1.9,2.46.43,1.04.65,2.37.65,4,0,2.33-.02,4.4-.07,6.21s-.07,3.78-.07,5.91c0,.64.11,1.14.33,1.52.22.38.56.69,1.02.95.24.15.63.23,1.16.24s1.07.02,1.63.02v1.57ZM191.07,368.16c-1.39.41-2.6.81-3.65,1.2-1.04.39-2.02.88-2.91,1.47-.82.56-1.46,1.22-1.93,1.98-.47.76-.71,1.66-.71,2.71,0,1.36.36,2.35,1.07,3,.71.64,1.61.95,2.71.95,1.16,0,2.18-.28,3.06-.84.88-.57,1.62-1.23,2.23-2l.15-8.46Z"/>
        <path class="cls-1" d="M241.34,355.35c0,1.81-.36,3.42-1.07,4.81-.71,1.4-1.69,2.55-2.95,3.46-1.24.91-2.6,1.58-4.09,2.01s-3.06.64-4.73.64h-3.89v10.53c0,.57.09,1.07.28,1.51s.58.76,1.16.99c.29.11.81.22,1.55.32s1.42.16,2.04.17v1.74h-14.91v-1.74c.39-.03.96-.09,1.7-.17s1.26-.19,1.55-.32c.49-.21.84-.52,1.07-.93.22-.41.33-.93.33-1.57v-25.07c0-.57-.08-1.09-.24-1.54s-.55-.8-1.15-1.03c-.62-.21-1.24-.36-1.85-.45s-1.14-.15-1.58-.18v-1.74h15.87c3.23,0,5.86.78,7.87,2.34,2.02,1.56,3.02,3.64,3.02,6.23ZM233.9,361.27c.56-.78.92-1.6,1.1-2.44.18-.84.27-1.6.27-2.27,0-.93-.11-1.88-.33-2.84-.22-.96-.6-1.8-1.14-2.52-.57-.77-1.32-1.36-2.25-1.79s-2.09-.64-3.48-.64h-3.45v15.35h2.5c1.76,0,3.2-.27,4.3-.82s1.93-1.23,2.49-2.04Z"/>
        <path class="cls-1" d="M263.19,360.49c0,.83-.2,1.57-.61,2.22-.41.64-1.04.97-1.89.97-.91,0-1.61-.24-2.09-.71s-.72-1-.72-1.57c0-.36.03-.69.09-.98s.11-.59.16-.88c-.77,0-1.67.31-2.69.93-1.03.62-1.9,1.5-2.62,2.64v14.06c0,.57.11,1.04.33,1.4s.57.63,1.04.81c.41.16.93.29,1.58.37.64.08,1.2.14,1.68.17v1.62h-12.73v-1.62c.38-.03.76-.07,1.16-.1s.75-.1,1.04-.2c.46-.15.8-.4,1.02-.77s.33-.84.33-1.43v-14.9c0-.51-.12-1-.36-1.49-.24-.49-.57-.88-.99-1.18-.31-.2-.68-.34-1.1-.43-.42-.09-.88-.15-1.37-.18v-1.62l8.03-.54.34.34v3.4h.12c1.01-1.32,2.14-2.33,3.38-3.01,1.24-.69,2.38-1.03,3.4-1.03s1.87.33,2.51,1c.64.67.97,1.57.97,2.69Z"/>
        <path class="cls-1" d="M276.95,381.53h-11.66v-1.62c.38-.03.76-.07,1.16-.1s.75-.1,1.04-.2c.46-.15.8-.4,1.02-.77s.33-.84.33-1.43v-14.9c0-.52-.12-1-.36-1.43-.24-.43-.57-.79-.99-1.09-.31-.2-.76-.36-1.35-.5-.59-.14-1.13-.22-1.62-.26v-1.62l8.52-.54.34.34v19.69c0,.57.11,1.04.33,1.42s.56.65,1.03.83c.36.15.71.27,1.05.36s.72.15,1.14.18v1.62ZM273.89,347.56c0,.93-.31,1.74-.92,2.44s-1.37,1.04-2.27,1.04c-.83,0-1.55-.33-2.17-.99-.61-.66-.92-1.42-.92-2.27,0-.9.31-1.68.92-2.35.61-.67,1.33-1,2.17-1,.93,0,1.69.31,2.29.94.6.63.89,1.36.89,2.19Z"/>
        <path class="cls-1" d="M303.79,358.88c-.73.13-1.43.4-2.09.8-.66.4-1.23,1.11-1.7,2.12-.96,2.19-1.96,4.47-2.99,6.84-1.03,2.38-2.1,4.87-3.21,7.48-.33.75-.67,1.64-1.04,2.67-.37,1.03-.71,2.02-1.02,2.96h-1.91c-1.55-3.84-2.98-7.33-4.29-10.49-1.31-3.16-2.66-6.4-4.06-9.71-.33-.75-.85-1.33-1.58-1.75-.73-.42-1.46-.68-2.19-.8v-1.62h11.17v1.71c-.49.02-1.1.12-1.84.31-.73.19-1.1.44-1.1.77,0,.05.04.18.12.38.08.2.16.44.24.7.67,1.67,1.61,3.99,2.83,6.97,1.22,2.99,2.21,5.39,2.98,7.22.59-1.4,1.33-3.15,2.22-5.24.89-2.09,1.85-4.42,2.88-7,.16-.44.32-.85.47-1.24s.22-.77.22-1.16c0-.27-.13-.52-.4-.74s-.59-.41-.97-.58c-.38-.16-.74-.29-1.1-.37s-.65-.14-.88-.17v-1.57h9.24v1.49Z"/>
        <path class="cls-1" d="M316.54,381.53h-11.66v-1.62c.38-.03.76-.07,1.16-.1s.75-.1,1.04-.2c.46-.15.8-.4,1.02-.77.22-.37.33-.84.33-1.43v-14.9c0-.52-.12-1-.36-1.43-.24-.43-.57-.79-.99-1.09-.31-.2-.76-.36-1.35-.5-.59-.14-1.13-.22-1.62-.26v-1.62l8.52-.54.34.34v19.69c0,.57.11,1.04.33,1.42s.56.65,1.03.83c.36.15.71.27,1.05.36s.72.15,1.14.18v1.62ZM313.48,347.56c0,.93-.31,1.74-.92,2.44-.61.69-1.37,1.04-2.27,1.04-.83,0-1.55-.33-2.17-.99-.61-.66-.92-1.42-.92-2.27,0-.9.31-1.68.92-2.35.61-.67,1.33-1,2.17-1,.93,0,1.69.31,2.29.94s.89,1.36.89,2.19Z"/>
        <path class="cls-1" d="M334.44,380.47c-1.06.44-2.07.81-3.01,1.11s-2.11.45-3.48.45c-2.02,0-3.45-.51-4.27-1.53-.82-1.02-1.24-2.46-1.24-4.32v-16.36h-4.36v-2.35h4.46v-7.52h4.46v7.52h6.93v2.35h-6.88v13.49c0,1.01.04,1.86.11,2.53.07.68.25,1.27.53,1.78.26.47.65.83,1.18,1.08.52.24,1.22.37,2.11.37.41,0,1.01-.04,1.8-.11.79-.07,1.35-.17,1.68-.28v1.79Z"/>
        <path class="cls-1" d="M358.29,375.84c-1.01,1.93-2.37,3.46-4.06,4.6-1.7,1.14-3.65,1.71-5.85,1.71-1.94,0-3.64-.34-5.11-1.03-1.46-.69-2.66-1.62-3.61-2.79-.95-1.18-1.65-2.55-2.12-4.11-.47-1.57-.7-3.22-.7-4.97,0-1.57.25-3.11.75-4.62.5-1.51,1.23-2.87,2.19-4.08.93-1.16,2.09-2.09,3.46-2.8,1.38-.71,2.93-1.07,4.64-1.07s3.27.28,4.53.83c1.26.56,2.28,1.31,3.06,2.28.75.91,1.31,1.99,1.68,3.23.37,1.24.55,2.59.55,4.04v1.62h-15.99c0,1.59.15,3.03.45,4.32.3,1.29.78,2.43,1.43,3.41.64.95,1.47,1.7,2.5,2.25,1.03.55,2.25.82,3.67.82s2.71-.34,3.76-1.02c1.05-.68,2.07-1.91,3.05-3.68l1.71,1.05ZM352.88,366.64c0-.91-.08-1.89-.23-2.93-.16-1.04-.4-1.91-.75-2.61-.38-.75-.89-1.36-1.54-1.83-.65-.47-1.49-.71-2.52-.71-1.71,0-3.14.71-4.27,2.13s-1.75,3.41-1.85,5.95h11.17Z"/>
        <path class="cls-1" d="M379.57,360.49c0,.83-.2,1.57-.61,2.22-.41.64-1.04.97-1.89.97-.91,0-1.61-.24-2.09-.71s-.72-1-.72-1.57c0-.36.03-.69.09-.98s.11-.59.16-.88c-.77,0-1.67.31-2.69.93-1.03.62-1.9,1.5-2.62,2.64v14.06c0,.57.11,1.04.33,1.4s.57.63,1.04.81c.41.16.93.29,1.58.37s1.2.14,1.68.17v1.62h-12.73v-1.62c.38-.03.76-.07,1.16-.1s.75-.1,1.04-.2c.46-.15.8-.4,1.02-.77s.33-.84.33-1.43v-14.9c0-.51-.12-1-.36-1.49-.24-.49-.57-.88-.99-1.18-.31-.2-.68-.34-1.1-.43-.42-.09-.88-.15-1.37-.18v-1.62l8.03-.54.34.34v3.4h.12c1.01-1.32,2.14-2.33,3.38-3.01,1.24-.69,2.38-1.03,3.4-1.03s1.87.33,2.51,1,.97,1.57.97,2.69Z"/>
        <path class="cls-1" d="M404.5,381.08c-.77.28-1.44.5-2.02.67-.58.17-1.24.26-1.97.26-1.27,0-2.29-.3-3.05-.89-.76-.6-1.24-1.47-1.46-2.61h-.15c-1.06,1.18-2.2,2.07-3.42,2.69s-2.68.93-4.4.93c-1.81,0-3.3-.56-4.47-1.67-1.17-1.11-1.75-2.56-1.75-4.36,0-.93.13-1.76.39-2.5.26-.73.65-1.4,1.18-1.98.41-.49.95-.93,1.62-1.31.67-.38,1.3-.69,1.89-.92.73-.28,2.22-.79,4.47-1.54,2.24-.75,3.76-1.34,4.54-1.76v-2.42c0-.21-.04-.62-.13-1.22-.09-.6-.28-1.18-.58-1.71-.33-.6-.79-1.13-1.38-1.58s-1.44-.67-2.53-.67c-.75,0-1.45.13-2.09.38-.64.25-1.1.52-1.36.8,0,.33.08.81.23,1.44.16.64.23,1.22.23,1.76,0,.57-.26,1.09-.77,1.57-.51.47-1.23.71-2.14.71-.82,0-1.42-.29-1.8-.87-.38-.58-.58-1.23-.58-1.95s.27-1.47.8-2.15,1.22-1.3,2.07-1.84c.73-.46,1.62-.84,2.67-1.16,1.04-.32,2.07-.48,3.06-.48,1.37,0,2.57.09,3.59.28,1.02.19,1.95.59,2.78,1.21.83.6,1.47,1.42,1.9,2.46.43,1.04.65,2.37.65,4,0,2.33-.02,4.4-.07,6.21s-.07,3.78-.07,5.91c0,.64.11,1.14.33,1.52.22.38.56.69,1.02.95.24.15.63.23,1.16.24s1.07.02,1.63.02v1.57ZM395.95,368.16c-1.39.41-2.6.81-3.65,1.2-1.04.39-2.02.88-2.91,1.47-.82.56-1.46,1.22-1.93,1.98-.47.76-.71,1.66-.71,2.71,0,1.36.36,2.35,1.07,3,.71.64,1.61.95,2.71.95,1.16,0,2.18-.28,3.06-.84.88-.57,1.62-1.23,2.23-2l.15-8.46Z"/>
      </g>
    </g>
  </g>
</svg>